<svg xmlns="http://www.w3.org/2000/svg" viewBox="0 0 511 511"><g id="BG"><circle id="bg_circle" cx="255.5" cy="255.5" r="168.5" style="fill:#15b869"/></g><g id="Text"><path d="M200.23,332.3q-24.49,0-39.9-10.73t-22.75-29.75q-7.35-19-7.35-44.22a125.61,125.61,0,0,1,4.79-36,75.94,75.94,0,0,1,14.23-27.3,62.21,62.21,0,0,1,23-17.27Q185.76,161,203.5,161a88.16,88.16,0,0,1,41.54,9.8l-8.87,20.07a69.51,69.51,0,0,0-16.34-6,75,75,0,0,0-16.8-2,47.81,47.81,0,0,0-20.88,4.31,38,38,0,0,0-14.82,12.6,59.31,59.31,0,0,0-8.75,20.19,115.43,115.43,0,0,0-2.91,27.3q0,19.83,4.78,33.83t15.05,21.35q10.26,7.35,26.6,7.35A84,84,0,0,0,219.25,308,98.84,98.84,0,0,0,238,302v23.1a106.58,106.58,0,0,1-18.79,5.48A101.48,101.48,0,0,1,200.23,332.3Z" transform="translate(-0.5 -0.5)" style="fill:#215b14"/><path d="M260,330l51.8-167.3H340L392,330h-25.2L333,213.3q-.93-3.74-2.21-8.05t-2.57-9.45q-1.29-5.13-2.45-10-.94,4.89-2.22,10t-2.45,9.57c-.78,2.95-1.48,5.6-2.1,7.93L284.7,330Zm32.9-48.3,7-21.24h51.57l5.13,21.24Z" transform="translate(-0.5 -0.5)" style="fill:#215b14"/></g><g id="objects"><g id="cs2_painted"><path d="M505.5,188.41l-41.25,54.92s.74,16.89,0,25.34l41.25,54.92a254.29,254.29,0,0,1-25.34,61.13l-67.85,9.7s-11.68,12.17-17.89,17.89l-9.7,67.85a256.26,256.26,0,0,1-61.13,25.34l-54.92-41.25a143,143,0,0,1-25.34,0L188.41,505.5a254.53,254.53,0,0,1-61.14-25.34l-9.69-67.85c-3.07-2.9-6.08-5.84-9.06-8.82l28-28A168.94,168.94,0,0,0,375.46,136.54l28.09-28.09c3,3,5.92,6,8.76,9.13l67.85,9.69A256.5,256.5,0,0,1,505.5,188.41Z" transform="translate(-0.5 -0.5)" style="fill:#2a387f"/><path d="M403.55,108.45l-28.09,28.09A168.94,168.94,0,0,0,136.54,375.46l-28,28Q104,399,99.69,394.42l-67.84-9.7A256.29,256.29,0,0,1,6.5,323.59l41.25-54.92s-.75-16.89,0-25.34L6.5,188.41a253.75,253.75,0,0,1,25.35-61.14l67.84-9.69q8.7-9.18,17.89-17.89l9.69-67.84A256.12,256.12,0,0,1,188.41,6.5l54.92,41.25a143,143,0,0,1,25.34,0L323.59,6.5a253.52,253.52,0,0,1,61.13,25.35l9.7,67.84Q399.1,104,403.55,108.45Z" transform="translate(-0.5 -0.5)" style="fill:#fcac19"/><path d="M136.54,375.46A168.94,168.94,0,1,1,256,424.93,168.47,168.47,0,0,1,136.54,375.46Z" transform="translate(-0.5 -0.5)" style="fill:none;stroke:#000;stroke-linecap:round;stroke-linejoin:round;stroke-width:12px"/><path d="M108.52,403.49Q104,399,99.69,394.42l-67.84-9.7A256.29,256.29,0,0,1,6.5,323.59l41.25-54.92s-.75-16.89,0-25.34L6.5,188.41a253.75,253.75,0,0,1,25.35-61.14l67.84-9.69q8.7-9.18,17.89-17.89l9.69-67.84A256.12,256.12,0,0,1,188.41,6.5l54.92,41.25a143,143,0,0,1,25.34,0L323.59,6.5a253.52,253.52,0,0,1,61.13,25.35l9.7,67.84q4.68,4.32,9.13,8.76c3,3,5.92,6,8.76,9.13l67.85,9.69a256.5,256.5,0,0,1,25.34,61.14l-41.25,54.92s.74,16.89,0,25.34l41.25,54.92a254.29,254.29,0,0,1-25.34,61.13l-67.85,9.7s-11.68,12.17-17.89,17.89l-9.7,67.85a256.26,256.26,0,0,1-61.13,25.34l-54.92-41.25a143,143,0,0,1-25.34,0L188.41,505.5a254.53,254.53,0,0,1-61.14-25.34l-9.69-67.85C114.51,409.41,111.5,406.47,108.52,403.49Z" transform="translate(-0.5 -0.5)" style="fill:none;stroke:#000;stroke-linecap:round;stroke-linejoin:round;stroke-width:12px"/></g></g></svg>